<svg width="27" height="28" viewBox="0 0 27 28" fill="none" xmlns="http://www.w3.org/2000/svg">
<path d="M25.1316 11.5238H21.1768C17.9337 11.5238 15.2926 8.88272 15.2926 5.63956V1.68483C15.2926 0.932196 14.6768 0.316406 13.9242 0.316406H8.12211C3.90737 0.316406 0.5 3.05325 0.5 7.93851V20.0627C0.5 24.948 3.90737 27.6848 8.12211 27.6848H18.8779C23.0926 27.6848 26.5 24.948 26.5 20.0627V12.8922C26.5 12.1396 25.8842 11.5238 25.1316 11.5238ZM13.8832 19.1732L11.1463 21.9101C11.0505 22.0059 10.9274 22.088 10.8042 22.129C10.6811 22.1838 10.5579 22.2111 10.4211 22.2111C10.2842 22.2111 10.1611 22.1838 10.0379 22.129C9.92842 22.088 9.81895 22.0059 9.73684 21.9238C9.72316 21.9101 9.70947 21.9101 9.70947 21.8964L6.97263 19.1596C6.57579 18.7627 6.57579 18.1059 6.97263 17.709C7.36947 17.3122 8.02632 17.3122 8.42316 17.709L9.39474 18.708V12.9743C9.39474 12.4132 9.86 11.948 10.4211 11.948C10.9821 11.948 11.4474 12.4132 11.4474 12.9743V18.708L12.4326 17.7227C12.8295 17.3259 13.4863 17.3259 13.8832 17.7227C14.28 18.1196 14.28 18.7764 13.8832 19.1732Z" fill="#0F8BFD"/>
<path d="M20.9302 9.63612C22.2302 9.6498 24.0365 9.6498 25.5828 9.6498C26.3628 9.6498 26.7733 8.73296 26.2259 8.18559C24.2554 6.20138 20.7249 2.6298 18.6996 0.604536C18.1386 0.0434835 17.167 0.426641 17.167 1.20664V5.98243C17.167 7.98033 18.8638 9.63612 20.9302 9.63612Z" fill="#0F8BFD"/>
</svg>
